<svg xmlns="http://www.w3.org/2000/svg" viewBox="0 0 760 1120" fill="none">
  <defs>
    <linearGradient id="coat" x1="379" y1="476" x2="387" y2="1108" gradientUnits="userSpaceOnUse">
      <stop stop-color="#30373D"/><stop offset=".48" stop-color="#15191D"/><stop offset="1" stop-color="#0C0F12"/>
    </linearGradient>
    <linearGradient id="lapel" x1="310" y1="490" x2="479" y2="1036" gradientUnits="userSpaceOnUse">
      <stop stop-color="#77828A"/><stop offset=".27" stop-color="#343C43"/><stop offset="1" stop-color="#171C21"/>
    </linearGradient>
    <linearGradient id="hair" x1="297" y1="56" x2="531" y2="395" gradientUnits="userSpaceOnUse">
      <stop stop-color="#EEF2F2"/><stop offset=".23" stop-color="#B7C0C4"/><stop offset=".55" stop-color="#737E85"/><stop offset="1" stop-color="#39434A"/>
    </linearGradient>
    <linearGradient id="skin" x1="330" y1="240" x2="493" y2="541" gradientUnits="userSpaceOnUse">
      <stop stop-color="#E9E3DD"/><stop offset=".48" stop-color="#B7B5B2"/><stop offset="1" stop-color="#777E83"/>
    </linearGradient>
    <linearGradient id="light" x1="277" y1="222" x2="495" y2="453" gradientUnits="userSpaceOnUse">
      <stop stop-color="#DCE9EB" stop-opacity=".5"/><stop offset="1" stop-color="#DCE9EB" stop-opacity="0"/>
    </linearGradient>
    <radialGradient id="shine" cx="0" cy="0" r="1" gradientTransform="matrix(0 510 -290 0 390 320)" gradientUnits="userSpaceOnUse">
      <stop stop-color="#AEBEC1" stop-opacity=".2"/><stop offset="1" stop-color="#AEBEC1" stop-opacity="0"/>
    </radialGradient>
  </defs>
  <ellipse cx="390" cy="547" rx="290" ry="509" fill="url(#shine)"/>
  <path d="M189 1120c10-174 26-355 69-474 21-59 75-98 151-104l66-5c87 11 143 47 172 112 47 108 71 302 84 471H189Z" fill="url(#coat)"/>
  <path d="m318 493 60-24 81 2 54 32 52 94-82 98-154-8-89-89 78-105Z" fill="#101519"/>
  <path d="m339 477 57 25 58-29 28 44-51 90 8 263-81-2-17-262-52-85 50-44Z" fill="#A9B5B8"/>
  <path d="m393 502 60-30 69 37 61 88-91 134-88-126 27-103-38 16Z" fill="url(#lapel)"/>
  <path d="m336 477 55 26 44 97-47 78-82-131 30-70Z" fill="#5C6870"/>
  <path d="m374 565-26 244 37 34 42-26-14-255-39 3Z" fill="#101417"/>
  <path d="m383 817-34 296h104l-21-298-49 2Z" fill="#1C2226"/>
  <path d="m385 812 61 6-9 36-58-8 6-34Z" fill="#849196"/>
  <circle cx="418" cy="832" r="7" fill="#D3D9D8"/>
  <path d="M291 195c4-72 63-128 138-128 85 0 147 59 151 144l9 147c5 106-58 191-154 195-101 4-159-82-155-192l11-166Z" fill="url(#skin)"/>
  <path d="M291 276c-18 38-29 89-29 131 0 40 18 72 39 76-6-45 1-86 9-112l-19-95Z" fill="#899196"/>
  <path d="M564 268c19 39 29 91 27 135-1 39-17 68-37 76 5-50-1-86-10-110l20-101Z" fill="#7E878C"/>
  <path d="M324 313c29-24 70-32 105-21" stroke="#49525A" stroke-width="11" stroke-linecap="round"/>
  <path d="M451 291c33-14 68-9 93 11" stroke="#49525A" stroke-width="11" stroke-linecap="round"/>
  <path d="M340 344c25-19 55-20 80-3" stroke="#292F33" stroke-width="8" stroke-linecap="round"/>
  <path d="M463 338c25-14 50-11 70 4" stroke="#292F33" stroke-width="8" stroke-linecap="round"/>
  <path d="M360 347c14-7 27-7 39-2" stroke="#D9E1E1" stroke-width="3" stroke-linecap="round"/>
  <path d="M477 344c14-5 27-2 37 4" stroke="#D9E1E1" stroke-width="3" stroke-linecap="round"/>
  <path d="M450 354c-4 42-15 70-27 93 11 8 28 10 41 2" stroke="#8B8F90" stroke-width="7" stroke-linecap="round" stroke-linejoin="round"/>
  <path d="M376 474c34 18 68 17 101-4" stroke="#626B6F" stroke-width="7" stroke-linecap="round"/>
  <path d="M383 493c24 3 48 1 71-7" stroke="#EEF0EE" stroke-opacity=".58" stroke-width="3" stroke-linecap="round"/>
  <path d="M278 272c-25-116 30-222 130-245 42-10 86-3 117 22-39-12-83-9-124 14 46-22 93-23 131-8 44 17 72 62 75 117-29-45-76-73-126-74 42 13 75 43 90 81-41-32-87-38-131-27-34 9-61 28-83 53l-18-4c-6 61-34 105-68 139l7-75Z" fill="url(#hair)"/>
  <path d="M280 278c47-33 87-82 108-142l17 47c44-63 109-96 192-96-50-6-91 6-129 31 53-10 104 8 142 43-48-25-103-23-146 0-48 26-75 65-106 106l-35-13-36 75-7-51Z" fill="#D5DCDD"/>
  <path d="M308 207c-8 60-31 109-67 152 12-98 6-161 41-222 16-29 44-57 77-76-44 43-50 94-51 146Z" fill="#8C979D"/>
  <path d="M517 86c42 19 73 53 85 103-25-30-55-48-94-52 23 15 43 37 57 65-33-21-66-29-104-24 24-15 38-41 56-92Z" fill="#F1F3F1"/>
  <path d="M299 276c36-42 57-86 65-135 16 45 12 96-16 150-13 24-31 47-54 67l5-82Z" fill="#A6B0B4"/>
  <path d="M278 292c-18 10-31 31-38 59" stroke="#E2E9E9" stroke-opacity=".7" stroke-width="4" stroke-linecap="round"/>
  <path d="M318 233c54-73 118-111 195-120" stroke="url(#light)" stroke-width="13" stroke-linecap="round"/>
  <path d="m248 625 67 72-42 87-45-77 20-82Z" fill="#313A40"/>
  <path d="m566 601 57 96-57 77-38-73 38-100Z" fill="#252C31"/>
  <path d="M213 801c50 37 102 58 159 68M562 871c38-10 70-27 103-49" stroke="#69757A" stroke-opacity=".42" stroke-width="3"/>
  <path d="M291 563c38 17 68 22 98 20" stroke="#EDF1EF" stroke-opacity=".28" stroke-width="3"/>
  <path d="M484 592c29-16 55-40 78-70" stroke="#B9C3C4" stroke-opacity=".3" stroke-width="3"/>
</svg>
